<?xml version="1.0" standalone="no"?>
<svg xmlns="http://www.w3.org/2000/svg" viewBox="0 0 71.81 36" width="71.81" height="36"><g fill="#0737e8" color="#0737e8" transform="translate(0 6) scale(0.4705883)"><svg width="44.0" height="51.0" x="0.0" y="0.0" viewBox="0 0 44 51"><path fill="currentColor" fill-rule="evenodd" d="M21.986 0L44 12.704v25.393L22.029 50.801.014 38.111 0 12.718 21.986 0zM22 7.428L6.43 16.425V34.42l15.599 8.996 15.555-9.01-.014-17.994L22 7.428zm-.001 5.403l10.907 6.302v12.561l-10.907 6.302-10.893-6.288-.015-12.575L22 12.83z"></path></svg></g><path fill="#00adff" fill-rule="nonzero" d="M4.70 17.21L4.70 17.21Q3.38 17.21 2.32 16.55Q1.25 15.89 0.62 14.78Q0 13.68 0 12.31L0 12.31L0.02 4.82Q0.02 3.50 0.64 2.41Q1.25 1.32 2.32 0.66Q3.38 0 4.70 0L4.70 0Q6.02 0 7.08 0.65Q8.14 1.30 8.76 2.39Q9.38 3.48 9.38 4.82L9.38 4.82L9.38 5.93Q9.38 6.02 9.29 6.02L9.29 6.02L6.60 6.02Q6.50 6.02 6.50 5.93L6.50 5.93L6.50 4.82Q6.50 4.03 5.99 3.46Q5.47 2.88 4.70 2.88L4.70 2.88Q3.84 2.88 3.38 3.47Q2.93 4.06 2.93 4.82L2.93 4.82L2.93 12.31Q2.93 13.20 3.44 13.75Q3.96 14.30 4.70 14.30L4.70 14.30Q5.47 14.30 5.99 13.69Q6.50 13.08 6.50 12.31L6.50 12.31L6.50 11.21Q6.50 11.11 6.60 11.11L6.60 11.11L9.31 11.11Q9.41 11.11 9.41 11.21L9.41 11.21L9.41 12.31Q9.41 13.68 8.77 14.78Q8.14 15.89 7.08 16.55Q6.02 17.21 4.70 17.21ZM13.97 16.97L11.26 16.97Q11.16 16.97 11.16 16.85L11.16 16.85L11.21 0.36Q11.21 0.26 11.30 0.26L11.30 0.26L16.15 0.26Q17.45 0.26 18.54 0.90Q19.63 1.54 20.28 2.60Q20.93 3.67 20.93 5.02L20.93 5.02Q20.93 5.90 20.66 6.61Q20.40 7.32 20.04 7.81Q19.68 8.30 19.39 8.54L19.39 8.54Q20.69 9.98 20.69 11.93L20.69 11.93L20.71 16.85Q20.71 16.97 20.59 16.97L20.59 16.97L17.88 16.97Q17.78 16.97 17.78 16.90L17.78 16.90L17.78 11.93Q17.78 11.06 17.17 10.43Q16.56 9.79 15.67 9.79L15.67 9.79L14.09 9.79L14.06 16.85Q14.06 16.97 13.97 16.97L13.97 16.97ZM14.09 3.14L14.09 6.91L16.15 6.91Q16.90 6.91 17.47 6.36Q18.05 5.81 18.05 5.02L18.05 5.02Q18.05 4.25 17.48 3.70Q16.92 3.14 16.15 3.14L16.15 3.14L14.09 3.14ZM25.54 16.97L22.82 16.97Q22.73 16.97 22.73 16.85L22.73 16.85L22.78 0.36Q22.78 0.26 22.87 0.26L22.87 0.26L27.72 0.26Q29.02 0.26 30.11 0.90Q31.20 1.54 31.85 2.60Q32.50 3.67 32.50 5.02L32.50 5.02Q32.50 5.90 32.23 6.61Q31.97 7.32 31.61 7.81Q31.25 8.30 30.96 8.54L30.96 8.54Q32.26 9.98 32.26 11.93L32.26 11.93L32.28 16.85Q32.28 16.97 32.16 16.97L32.16 16.97L29.45 16.97Q29.35 16.97 29.35 16.90L29.35 16.90L29.35 11.93Q29.35 11.06 28.74 10.43Q28.13 9.79 27.24 9.79L27.24 9.79L25.66 9.79L25.63 16.85Q25.63 16.97 25.54 16.97L25.54 16.97ZM25.66 3.14L25.66 6.91L27.72 6.91Q28.46 6.91 29.04 6.36Q29.62 5.81 29.62 5.02L29.62 5.02Q29.62 4.25 29.05 3.70Q28.49 3.14 27.72 3.14L27.72 3.14L25.66 3.14ZM42.91 16.97L33.96 16.97Q33.84 16.97 33.84 16.85L33.84 16.85L33.84 14.14Q33.84 14.09 33.89 14.04L33.89 14.04L39.82 5.90Q39.98 5.69 40.09 5.34Q40.20 4.99 40.20 4.73L40.20 4.73Q40.20 4.03 39.70 3.44Q39.19 2.86 38.42 2.86L38.42 2.86Q37.68 2.86 37.16 3.42Q36.65 3.98 36.65 4.85L36.65 4.85L36.65 6.02Q36.65 6.14 36.53 6.14L36.53 6.14L33.84 6.14Q33.74 6.14 33.74 6.02L33.74 6.02L33.74 4.85Q33.74 3.50 34.40 2.40Q35.06 1.30 36.13 0.65Q37.20 0 38.42 0L38.42 0Q39.72 0 40.78 0.66Q41.83 1.32 42.47 2.40Q43.10 3.48 43.10 4.73L43.10 4.73Q43.10 5.52 42.83 6.34Q42.55 7.15 42.07 7.78L42.07 7.78L37.51 14.04L42.91 14.04Q43.01 14.04 43.01 14.14L43.01 14.14L43.01 16.85Q43.01 16.97 42.91 16.97L42.91 16.97Z" transform="translate(28.706, 9.396)"></path></svg>